<?xml version="1.0" standalone="no"?>
<!DOCTYPE svg PUBLIC "-//W3C//DTD SVG 20010904//EN"
 "http://www.w3.org/TR/2001/REC-SVG-20010904/DTD/svg10.dtd">
<svg version="1.0" xmlns="http://www.w3.org/2000/svg"
 width="550.000000pt" height="486.000000pt" viewBox="0 0 550.000000 486.000000"
 preserveAspectRatio="xMidYMid meet">

<g transform="translate(0.000000,486.000000) scale(0.100000,-0.100000)"
fill="#000000" stroke="none">
<path d="M0 2430 l0 -2430 2750 0 2750 0 0 2430 0 2430 -2750 0 -2750 0 0
-2430z m2613 1418 c2 -7 2 -21 -1 -30 -4 -17 -35 -18 -463 -18 l-459 0 0 -618
0 -619 287 -6 c157 -4 364 -7 458 -7 156 0 173 -2 177 -17 11 -44 18 -43 -463
-43 l-459 0 0 -74 0 -73 455 -5 c251 -3 458 -7 460 -9 1 -2 5 -13 7 -24 3 -18
-3 -20 -69 -23 -58 -2 -73 -6 -77 -20 -5 -19 -30 -214 -28 -222 1 -3 41 -7 89
-10 l86 -5 1 -48 1 -47 -197 0 -198 0 0 50 0 50 80 0 c44 0 80 3 80 6 0 4 7
51 16 105 8 55 14 106 12 114 -3 13 -52 16 -369 18 -345 2 -368 3 -388 21 -21
19 -21 19 -21 777 l0 758 22 15 c20 14 83 16 489 16 365 0 468 -3 472 -12z
m-123 -268 c0 -19 -7 -20 -100 -20 -93 0 -100 1 -100 20 0 19 7 20 100 20 93
0 100 -1 100 -20z m450 0 c0 -17 -7 -20 -40 -20 -33 0 -40 3 -40 20 0 17 7 20
40 20 33 0 40 -3 40 -20z m-587 -70 c10 0 17 -8 17 -20 0 -17 -7 -20 -40 -20
-36 0 -40 2 -40 26 0 22 3 25 23 20 12 -3 30 -6 40 -6z m293 0 c8 0 14 -9 14
-20 0 -16 -7 -20 -30 -20 -26 0 -30 4 -30 26 0 20 4 25 16 20 9 -3 22 -6 30
-6z m-250 -80 c7 0 14 -9 17 -20 4 -17 0 -20 -34 -20 -35 0 -39 2 -39 26 0 22
3 25 23 20 12 -3 27 -6 33 -6z m-26 -115 c0 -22 -4 -25 -40 -25 -36 0 -40 3
-40 25 0 23 4 25 40 25 36 0 40 -2 40 -25z m266 0 c0 -23 -4 -25 -43 -25 -39
0 -43 2 -43 25 0 23 4 25 43 25 39 0 43 -2 43 -25z m220 0 c0 -23 -4 -25 -43
-25 -39 0 -43 2 -43 25 0 23 4 25 43 25 39 0 43 -2 43 -25z m264 0 c0 -22 -4
-25 -40 -25 -36 0 -40 3 -40 25 0 23 4 25 40 25 36 0 40 -2 40 -25z m-710 -90
c0 -24 -3 -25 -60 -25 -57 0 -60 1 -60 25 0 24 3 25 60 25 57 0 60 -1 60 -25z
m320 0 c0 -20 -5 -25 -25 -25 -20 0 -25 5 -25 25 0 20 5 25 25 25 20 0 25 -5
25 -25z m220 0 c0 -18 -5 -25 -20 -25 -15 0 -20 7 -20 25 0 18 5 25 20 25 15
0 20 -7 20 -25z m-630 -85 c0 -14 -7 -20 -22 -20 -13 0 -40 -3 -60 -6 -36 -6
-38 -5 -38 20 0 25 2 26 60 26 53 0 60 -2 60 -20z m360 1 c0 -19 -23 -35 -34
-24 -14 15 -5 43 14 43 13 0 20 -7 20 -19z m220 -1 c0 -11 -4 -20 -9 -20 -5 0
-23 -3 -40 -6 -28 -6 -31 -4 -31 20 0 24 3 26 40 26 33 0 40 -3 40 -20z m-534
-92 c2 -16 -7 -18 -62 -18 -58 0 -64 2 -64 20 0 19 5 21 62 18 49 -2 62 -6 64
-20z m274 2 c0 -13 -7 -20 -20 -20 -13 0 -20 7 -20 20 0 13 7 20 20 20 13 0
20 -7 20 -20z m238 -2 c3 -15 -5 -18 -52 -18 -50 0 -56 2 -56 21 0 18 5 20 52
17 41 -2 54 -7 56 -20z m292 2 c0 -13 -7 -20 -20 -20 -13 0 -20 7 -20 20 0 13
7 20 20 20 13 0 20 -7 20 -20z m-802 -88 c3 -17 -2 -22 -17 -22 -16 0 -21 6
-21 26 0 33 33 30 38 -4z m240 22 c13 -4 22 -14 22 -25 0 -17 -8 -19 -60 -19
-57 0 -60 1 -60 25 0 22 4 25 38 25 20 0 47 -3 60 -6z m-238 -109 c0 -22 -4
-25 -40 -25 -36 0 -40 3 -40 25 0 23 4 25 40 25 36 0 40 -2 40 -25z m350 0 c0
-24 -3 -25 -60 -25 -57 0 -60 1 -60 25 0 24 3 25 60 25 57 0 60 -1 60 -25z
m-100 -90 c0 -25 -1 -25 -85 -25 -84 0 -85 0 -85 25 0 25 1 25 85 25 84 0 85
0 85 -25z m-1385 -1322 c41 -19 42 -24 15 -48 -16 -14 -24 -15 -51 -6 -67 23
-139 8 -139 -28 0 -24 19 -31 78 -31 67 0 118 -17 142 -47 41 -53 14 -130 -56
-159 -72 -30 -186 -12 -230 37 -17 19 -17 21 3 40 l21 21 32 -23 c25 -19 44
-24 90 -24 64 1 90 15 90 50 0 26 -17 35 -65 35 -66 0 -134 21 -155 47 -36 46
-23 99 33 133 41 26 142 27 192 3z m899 -147 c47 -90 86 -166 86 -170 0 -3
-15 -6 -33 -6 -26 0 -37 6 -48 26 -13 25 -16 26 -71 20 -32 -4 -84 -16 -115
-26 -55 -18 -113 -26 -113 -15 0 3 34 69 76 146 57 106 74 147 70 165 -6 22
-3 24 27 24 34 0 35 -1 121 -164z m909 148 c44 -22 43 -21 18 -48 -21 -22 -23
-23 -67 -8 -37 12 -52 12 -90 2 -107 -30 -114 -165 -11 -205 42 -16 63 -14
142 10 22 6 51 -27 39 -46 -21 -34 -150 -51 -211 -28 -34 13 -80 55 -99 91
-18 35 -18 111 0 146 17 33 52 66 91 86 40 21 146 21 188 0z m438 -7 c102 -54
121 -197 37 -273 -41 -38 -85 -54 -145 -54 -119 1 -196 69 -196 173 0 112 71
175 199 176 45 1 72 -5 105 -22z m479 -7 c87 -44 106 -181 36 -258 -38 -43
-74 -54 -170 -56 l-91 -1 -3 138 c-3 136 -3 137 -26 137 -24 0 -52 43 -40 62
5 7 47 9 130 5 97 -4 131 -10 164 -27z m468 -7 l3 -33 -100 0 -101 0 0 -38 0
-39 80 5 80 5 0 -32 c0 -30 -2 -31 -42 -31 -24 0 -60 -5 -80 -11 -33 -9 -38
-14 -38 -39 l0 -30 106 0 105 0 -3 -32 -3 -33 -115 -3 c-176 -4 -160 -21 -160
172 0 122 3 166 13 170 6 2 66 4 132 3 l120 -2 3 -32z m-2868 -83 c51 -60 97
-110 102 -110 4 0 8 50 8 110 l0 110 30 0 30 0 0 -165 0 -165 -33 0 c-30 0
-42 10 -118 100 -46 55 -87 100 -91 100 -5 0 -8 -45 -8 -100 l0 -100 -35 0
-35 0 0 143 c0 113 -3 147 -16 165 -15 22 -15 22 28 22 43 0 45 -1 138 -110z
m1063 87 c33 -26 47 -90 27 -126 -20 -38 -69 -61 -131 -61 -31 0 -70 -5 -88
-11 -29 -10 -31 -14 -31 -60 l0 -49 -35 0 -35 0 0 165 0 165 133 0 c122 0 134
-2 160 -23z"/>
<path d="M1986 1292 l-35 -69 67 15 c37 9 68 17 70 18 7 4 -49 104 -58 104 -5
0 -25 -31 -44 -68z"/>
<path d="M3332 1410 c-42 -10 -68 -34 -82 -76 -39 -118 140 -193 224 -93 28
33 34 85 16 120 -21 38 -99 62 -158 49z"/>
<path d="M3800 1305 l0 -108 54 6 c67 7 93 23 107 66 14 42 -1 100 -32 119
-12 8 -46 16 -75 19 l-54 6 0 -108z"/>
<path d="M2400 1361 l0 -49 63 5 c98 8 122 16 125 43 6 37 -22 50 -110 50
l-78 0 0 -49z"/>
</g>
</svg>
