<?xml version="1.0" standalone="no"?>
<!DOCTYPE svg PUBLIC "-//W3C//DTD SVG 20010904//EN"
 "http://www.w3.org/TR/2001/REC-SVG-20010904/DTD/svg10.dtd">
<svg version="1.0" xmlns="http://www.w3.org/2000/svg"
 width="531.000000pt" height="470.000000pt" viewBox="0 0 531.000000 470.000000"
 preserveAspectRatio="xMidYMid meet">

<g transform="translate(0.000000,470.000000) scale(0.100000,-0.100000)"
fill="#000000" stroke="none">
<path d="M2565 3721 c-62 -9 -53 -27 18 -35 34 -3 272 -6 528 -7 256 0 471 -4
477 -8 9 -6 12 -151 10 -602 l-3 -594 -565 -5 c-311 -3 -545 -7 -520 -8 26 -2
39 -6 30 -10 -8 -4 -16 -12 -17 -18 -3 -19 136 -24 620 -24 l458 0 -3 -72 -3
-73 -535 -5 c-294 -3 -530 -6 -525 -8 6 -1 3 -7 -5 -12 -13 -9 -13 -11 0 -20
13 -9 13 -10 0 -12 -8 -1 59 -5 150 -8 l165 -5 6 -50 c3 -27 10 -80 14 -117
l8 -68 -129 -1 c-71 0 -149 -4 -174 -7 -42 -7 -45 -9 -46 -39 -1 -24 3 -33 15
-34 12 0 11 -2 -4 -9 -12 -5 98 -9 268 -9 l288 -1 -3 53 -3 52 -66 -3 c-46 -3
-68 0 -75 10 -6 7 -16 55 -23 106 -6 52 -13 99 -14 105 -1 9 92 13 354 17 333
5 358 6 378 24 21 19 21 20 21 746 0 692 -1 728 -18 743 -17 15 -67 17 -528
15 -280 0 -527 -4 -549 -7z"/>
<path d="M2447 3481 c-21 -3 -37 -10 -37 -16 1 -5 -7 -12 -17 -16 -10 -4 42
-8 115 -8 l132 -1 0 25 c0 25 -1 25 -77 24 -43 -1 -95 -5 -116 -8z"/>
<path d="M2864 3483 c-12 -2 -24 -13 -27 -24 -5 -17 0 -19 49 -19 51 0 54 1
54 25 0 26 -17 30 -76 18z"/>
<path d="M2278 3393 c6 -2 12 -11 12 -19 0 -8 6 -14 14 -14 7 0 28 -3 45 -6
28 -6 31 -4 31 20 0 25 -2 26 -57 25 -32 0 -52 -3 -45 -6z"/>
<path d="M2570 3381 c0 -20 18 -31 51 -31 14 0 19 7 19 25 0 22 -4 25 -35 25
-28 0 -35 -4 -35 -19z"/>
<path d="M2330 3300 c0 -11 6 -20 14 -20 7 0 28 -3 45 -6 28 -6 31 -4 31 20 0
24 -3 26 -45 26 -38 0 -45 -3 -45 -20z"/>
<path d="M2290 3205 c0 -23 4 -25 45 -25 25 0 45 5 45 11 0 5 -4 7 -10 4 -5
-3 -10 1 -10 10 0 9 5 13 10 10 6 -3 10 -1 10 4 0 6 -20 11 -45 11 -41 0 -45
-2 -45 -25z"/>
<path d="M2553 3223 c-7 -2 -13 -13 -13 -24 0 -16 7 -19 50 -19 47 0 50 2 50
25 0 22 -4 25 -37 24 -21 0 -44 -3 -50 -6z"/>
<path d="M2764 3215 c-10 -24 6 -35 52 -35 40 0 44 2 44 25 0 23 -4 25 -45 25
-31 0 -47 -5 -51 -15z"/>
<path d="M3015 3220 c-12 -20 17 -40 56 -40 35 0 39 3 39 25 0 23 -4 25 -44
25 -25 0 -48 -5 -51 -10z"/>
<path d="M2334 3129 c-11 -18 8 -26 74 -32 60 -5 62 -4 62 19 0 23 -3 24 -64
24 -36 0 -68 -5 -72 -11z"/>
<path d="M2635 3130 c-9 -15 4 -30 26 -30 12 0 19 7 19 20 0 21 -33 29 -45 10z"/>
<path d="M2850 3121 c0 -10 9 -21 19 -24 24 -6 31 0 31 25 0 13 -7 18 -25 18
-18 0 -25 -5 -25 -19z"/>
<path d="M2232 3053 c10 -2 15 -10 11 -19 -6 -17 8 -19 25 -2 9 9 12 8 12 -5
0 -14 10 -17 50 -17 47 0 50 2 50 25 0 25 -1 25 -82 24 -46 -1 -75 -3 -66 -6z"/>
<path d="M2589 3038 c4 -13 18 -24 30 -26 17 -3 20 1 18 20 -3 16 -12 24 -30
26 -24 3 -26 1 -18 -20z"/>
<path d="M2797 3043 c9 -26 23 -33 66 -33 33 0 37 3 37 25 0 24 -3 25 -55 25
-48 0 -54 -2 -48 -17z"/>
<path d="M2829 2972 c-49 -3 -56 -5 -52 -21 3 -14 18 -20 55 -24 58 -7 68 -4
68 23 0 24 -4 26 -71 22z"/>
<path d="M3078 2973 c-22 -5 -24 -39 -2 -47 27 -10 34 -7 34 18 0 28 -7 34
-32 29z"/>
<path d="M2283 2950 c-2 -17 5 -20 43 -22 100 -4 99 -4 100 20 1 21 -2 22 -70
22 -65 0 -72 -2 -73 -20z"/>
<path d="M2550 2950 c0 -13 7 -20 20 -20 13 0 20 7 20 20 0 13 -7 20 -20 20
-13 0 -20 -7 -20 -20z"/>
<path d="M2297 2883 c-13 -12 -7 -43 9 -43 8 0 12 5 9 11 -4 6 1 17 11 24 18
14 18 14 -2 15 -11 0 -24 -3 -27 -7z"/>
<path d="M2551 2881 c-8 -5 -11 -16 -8 -25 5 -12 21 -16 72 -16 63 0 65 1 65
25 0 24 -3 25 -57 25 -32 0 -64 -4 -72 -9z"/>
<path d="M2290 2780 c0 -17 6 -20 48 -19 26 0 41 3 35 6 -7 2 -13 9 -13 14 0
6 5 7 10 4 6 -3 10 -1 10 4 0 6 -20 11 -45 11 -38 0 -45 -3 -45 -20z"/>
<path d="M2631 2786 c-16 -19 6 -26 80 -26 52 0 59 2 59 20 0 18 -7 20 -64 20
-42 0 -67 -5 -75 -14z"/>
<path d="M2534 2698 c1 -22 5 -23 99 -26 98 -3 98 -3 95 20 -3 22 -8 23 -99
26 -95 3 -96 2 -95 -20z"/>
</g>
</svg>
